<svg width="18" height="18" clip-rule="evenodd" fill-rule="evenodd" stroke-linejoin="round" stroke-miterlimit="1.4142" version="1.1" viewBox="0 0 105.02 105.02" xml:space="preserve" xmlns="http://www.w3.org/2000/svg"><g transform="translate(-116.98)" fill="#a0a5aa"><path d="m132.36 89.638c9.499 9.502 22.628 15.378 37.125 15.378 14.501 0 27.628-5.876 37.13-15.378 9.504-9.502 15.38-22.631 15.38-37.13s-5.876-27.628-15.378-37.13c-9.502-9.504-22.631-15.378-37.132-15.378-14.499 0-27.628 5.879-37.127 15.378-9.502 9.504-15.378 22.631-15.378 37.13s5.878 27.628 15.38 37.13zm1.732-72.524c9.057-9.058 21.572-14.661 35.395-14.661s26.339 5.603 35.397 14.661 14.661 21.572 14.661 35.394c0 13.823-5.603 26.337-14.661 35.395s-21.572 14.661-35.395 14.661-26.337-5.603-35.395-14.661-14.66-21.572-14.66-35.395c-2e-3 -13.822 5.601-26.337 14.658-35.394z" fill-rule="nonzero"/><g transform="matrix(.11329 0 0 .11281 340.68 13.83)"><g transform="translate(-1732.9 114.02)" fill="#a0a5aa">
	<g fill="#a0a5aa">
		<polygon points="273.68 161.8 366.94 0 156.03 0 62.878 266.2 212.63 266.2 146.25 512 449.12 161.8" fill="#a0a5aa"/>
	</g>
</g></g></g></svg>
